<svg width="7" height="13" viewBox="0 0 7 13" fill="none" xmlns="http://www.w3.org/2000/svg">
<path d="M4.16992 7.31742V12.2065H3.00105V7.31742V6.81742H2.50105H1.1875V5.71717H2.50105H3.00105V5.21717V3.6683C3.00105 2.87294 3.24157 2.31788 3.60188 1.96176C3.96373 1.60411 4.50208 1.39209 5.20233 1.39209C5.63657 1.39209 6.03337 1.41094 6.3229 1.43112V2.35351L5.71082 2.35379C5.71074 2.35379 5.71067 2.35379 5.71059 2.35379C5.20805 2.35382 4.76907 2.47265 4.48086 2.81496C4.20886 3.13803 4.16992 3.55082 4.16992 3.87625V5.21717V5.71717H4.66992H6.18107L6.03921 6.81742H4.66992H4.16992V7.31742Z" fill="white" stroke="black"/>
</svg>
